<svg width="20" height="20" viewBox="0 0 20 20" fill="none" xmlns="http://www.w3.org/2000/svg">
<path d="M3.65212 0C1.62914 0 0.000244141 1.6289 0.000244141 3.65187V16.3481C0.000244141 18.3711 1.62914 20 3.65212 20H10.5334V12.1812H8.46587V9.36624H10.5334V6.96125C10.5334 5.07175 11.7549 3.33687 14.569 3.33687C15.7083 3.33687 16.5509 3.44625 16.5509 3.44625L16.4846 6.07501C16.4846 6.07501 15.6253 6.06689 14.6877 6.06689C13.6729 6.06689 13.5102 6.53445 13.5102 7.31065V9.36626H16.5652L16.4321 12.1813H13.5102V20H16.3483C18.3713 20 20.0002 18.3711 20.0002 16.3481V3.65189C20.0002 1.62892 18.3713 2e-05 16.3483 2e-05H3.6521L3.65212 0Z" fill="#4267B2"/>
</svg>
