<svg width="20" height="20" viewBox="0 0 20 20" fill="none" xmlns="http://www.w3.org/2000/svg">
<path d="M4.54004 20V6.50603H0.252822V20H4.54004ZM2.39698 4.66256C3.89201 4.66256 4.82259 3.62638 4.82259 2.3315C4.79474 1.00742 3.89207 0 2.42535 0C0.958869 0 -0.00012207 1.00744 -0.00012207 2.3315C-0.00012207 3.62644 0.930231 4.66256 2.36899 4.66256H2.39685H2.39698ZM6.91299 20H11.2002V12.4643C11.2002 12.061 11.2281 11.6581 11.3413 11.3698C11.6512 10.564 12.3566 9.72949 13.5409 9.72949C15.0923 9.72949 15.7129 10.9669 15.7129 12.7809V19.9999H19.9999V12.2626C19.9999 8.11777 17.8848 6.18923 15.0641 6.18923C12.7513 6.18923 11.7358 7.54167 11.1717 8.46281H11.2003V6.50575H6.91309C6.96935 7.77195 6.91309 19.9997 6.91309 19.9997L6.91299 20Z" fill="#0E76A8"/>
</svg>
